<?xml version="1.0" encoding="UTF-8"?><svg version="1.1" xmlns="http://www.w3.org/2000/svg" xmlns:xlink="http://www.w3.org/1999/xlink" viewBox="0 0 500 400" width="500" height="400" x="0px" y="0px">
              
              <!-- ITEM 0 -->
<g>
    <defs>
        
        <clipPath id="clip-path-id-viewbox-item-0">
            <rect x="0.0" y="0.0" width="125.6" height="125.6"/>
        </clipPath>
    </defs>
    <g transform="translate(13.0 159.0) rotate(43.65017123715931 128.5 128.5) scale(2.0461783439490446 2.0461783439490446)">
      <g clip-path="url(#clip-path-id-viewbox-item-0)" transform="translate(-0.0 -0.0)">
      

<g>
	<path d="M114.7,42.4H89.2c-3.3,0-5.9-2.6-5.9-5.9V11c0-3.3-2.6-5.9-5.9-5.9H48.2c-3.3,0-5.9,2.6-5.9,5.9v25.5   c0,3.3-2.6,5.9-5.9,5.9H10.9C7.6,42.4,5,45,5,48.3v29.2c0,3.3,2.6,5.9,5.9,5.9h25.5c3.3,0,5.9,2.6,5.9,5.9v25.5   c0,3.3,2.6,5.9,5.9,5.9h29.2c3.3,0,5.9-2.6,5.9-5.9V89.3c0-3.3,2.6-5.9,5.9-5.9h25.5c3.3,0,5.9-2.6,5.9-5.9V48.3   C120.6,45,117.9,42.4,114.7,42.4z" style="fill:#E0719E;"/>
	<path d="M77.4,125.6H48.2c-6,0-10.9-4.9-10.9-10.9V89.2c0-0.5-0.4-0.9-0.9-0.9H10.9C4.9,88.3,0,83.4,0,77.4V48.2   c0-6,4.9-10.9,10.9-10.9h25.5c0.5,0,0.9-0.4,0.9-0.9V10.9c0-6,4.9-10.9,10.9-10.9h29.2c6,0,10.9,4.9,10.9,10.9v25.5   c0,0.5,0.4,0.9,0.9,0.9h25.5c6,0,10.9,4.9,10.9,10.9v29.2c0,6-4.9,10.9-10.9,10.9H89.2c-0.5,0-0.9,0.4-0.9,0.9v25.5   C88.3,120.7,83.4,125.6,77.4,125.6z M11,47.4c-0.5,0-0.9,0.4-0.9,0.9v29.2c0,0.5,0.4,0.9,0.9,0.9h25.5c6,0,10.9,4.9,10.9,10.9v25.5   c0,0.5,0.4,0.9,0.9,0.9h29.2c0.5,0,0.9-0.4,0.9-0.9V89.3c0-6,4.9-10.9,10.9-10.9h25.5c0.5,0,0.9-0.4,0.9-0.9V48.3   c0-0.5-0.4-0.9-0.9-0.9H89.3c-6,0-10.9-4.9-10.9-10.9V11c0-0.5-0.4-0.9-0.9-0.9H48.3c-0.5,0-0.9,0.4-0.9,0.9v25.5   c0,6-4.9,10.9-10.9,10.9H11z" style="fill:#383A48;"/>
</g>

      </g>
    </g>
</g>

<!-- ITEM 1 -->
<g>
    <defs>
        
        <clipPath id="clip-path-id-viewbox-item-1">
            <rect x="0.0" y="0.0" width="111.0" height="127.6"/>
        </clipPath>
    </defs>
    <g transform="translate(252.0 177.0) rotate(0.0 101.0 115.5) scale(1.8198198198198199 1.810344827586207)">
      <g clip-path="url(#clip-path-id-viewbox-item-1)" transform="translate(-0.0 -0.0)">
      

<g>
	<g>
		<rect x="5" y="5" width="101" height="117.6" style="fill:#7FD6C2;"/>
	</g>
	<g>
		<path d="M106,127.6H5c-2.8,0-5-2.2-5-5V5c0-2.8,2.2-5,5-5h101c2.8,0,5,2.2,5,5v117.6C111,125.3,108.7,127.6,106,127.6    z M10,117.6h91V10H10V117.6z" style="fill:#383A48;"/>
	</g>
</g>

      </g>
    </g>
</g>

<!-- ITEM 2 -->
<g>
    <defs>
        
        <clipPath id="clip-path-id-viewbox-item-2">
            <rect x="0.0" y="0.0" width="149.024" height="138.528"/>
        </clipPath>
    </defs>
    <g transform="translate(257.0 -6.0) rotate(0.0 101.5 94.0) scale(1.3621966931500966 1.3571263571263572)">
      <g clip-path="url(#clip-path-id-viewbox-item-2)" transform="translate(-0.0 -0.0)">
      
<g id="No_Wi-Fi-i2">
	<g>
		<path style="fill:#2568EF;" d="M19.512,100.148c-4.418,0-8-3.582-8-8c0-1.882,0.401-46.391,35.331-71.496    c34.588-24.924,71.17-11.467,72.71-10.882c4.13,1.569,6.207,6.189,4.638,10.319c-1.569,4.131-6.188,6.208-10.319,4.638    c-1.193-0.442-30.234-10.868-57.683,8.912C27.84,54.014,27.512,91.769,27.512,92.148C27.512,96.566,23.93,100.148,19.512,100.148z    "/>
	</g>
	<g>
		<path style="fill:#2568EF;" d="M43.516,116.138c-0.075,0-0.149-0.001-0.225-0.003c-4.409-0.122-7.888-3.779-7.776-8.188    c0.04-1.619,1.33-39.891,30.098-60.772c32.067-23.312,62.19-6.066,63.458-5.32c3.808,2.241,5.077,7.145,2.836,10.953    c-2.241,3.807-7.146,5.078-10.953,2.835c-0.868-0.496-22.536-12.536-45.938,4.477c-22.288,16.179-23.497,47.932-23.507,48.25    C51.378,112.702,47.823,116.138,43.516,116.138z"/>
	</g>
	<g>
		<path style="fill:#2568EF;" d="M71.52,125.148c-0.17,0-0.341-0.005-0.513-0.016c-4.41-0.279-7.758-4.08-7.479-8.49    c0.071-1.126,1.958-27.72,20.439-40.478c21.833-15.285,42.12-4.167,42.973-3.686c3.85,2.169,5.211,7.048,3.042,10.897    c-2.17,3.848-7.05,5.21-10.897,3.041c-0.437-0.232-12.545-6.523-25.984,2.885c-12.015,8.293-13.592,28.153-13.604,28.352    C79.228,121.89,75.707,125.148,71.52,125.148z"/>
	</g>
	
		<ellipse transform="matrix(0.8944 -0.4473 0.4473 0.8944 -44.041 64.566)" style="fill:#2568EF;" cx="114.705" cy="125.545" rx="12.9" ry="13"/>
	<g>
		<path style="fill:#FF564F;" d="M145.512,110.648c-0.5,0-1-0.1-1.5-0.3l-142-67c-1.7-0.8-2.5-2.9-1.7-4.7c0.8-1.7,2.9-2.5,4.7-1.7    l142,67c1.7,0.8,2.5,2.9,1.7,4.7C148.112,109.948,146.812,110.648,145.512,110.648z"/>
	</g>
</g>

      </g>
    </g>
</g>

<!-- ITEM 3 -->
<g>
    <defs>
        
        <clipPath id="clip-path-id-viewbox-item-3">
            <rect x="0.0" y="0.0" width="484.0" height="329.278"/>
        </clipPath>
    </defs>
    <g transform="translate(252.0 35.0) rotate(0.0 -106.0 72.0) scale(-0.4380165289256198 0.43732044047886587)">
      <g clip-path="url(#clip-path-id-viewbox-item-3)" transform="translate(-0.0 -0.0)">
      <title>speech_bubble_l_5</title><g id="Layer_2-i3" data-name="Layer 2"><g id="speech_bubble_l_5-i3"><path d="M434,250s-106.124,8-194,8c-80.756,0-190-8-190-8A50,50,0,0,1,0,200V50A50,50,0,0,1,50,0S204.417,6,230,6c49.417,0,204-6,204-6a50,50,0,0,1,50,50V200A50,50,0,0,1,434,250Z" fill="#f04e23"/><path d="M38,207s50.141,74.224-4.9,113.4a4.884,4.884,0,0,0,4.136,8.684C79.55,317.492,136.669,276.192,149,207Z" fill="#f04e23"/></g></g>
      </g>
    </g>
</g>

              </svg>