<svg preserveAspectRatio="xMidYMid meet" data-bbox="0 -0.001 220.34 213.401" viewBox="0 -0.001 220.34 213.401" xmlns="http://www.w3.org/2000/svg" data-type="color" role="img"><defs><style>#comp-jlevopwy svg [data-color="1"] {fill: #FFFFFF;}</style></defs>
    <g>
        <path fill="#1d1d1b" d="M210.17 6.38h1.05V2.02h1.69v-.98h-4.42v.98h1.68v4.36z" data-color="1"/>
        <path fill="#1d1d1b" d="M218.92 1.04l-1.57 3.85-1.6-3.85h-1.37v5.34h1V2.66l1.53 3.72h.87l1.53-3.75v3.75h1.03V1.04h-1.42z" data-color="1"/>
        <path d="M171.35 94.47H113.9V213h32.09v-22.3h25.34a48.12 48.12 0 1 0 0-96.23z" fill="#1d1d1b" data-color="1"/>
        <path fill="#1d1d1b" d="M71.3 128.42l-25.17 25.17-25.43-25.82L3.83 144.9l25.3 25.68-25.3 25.3 16.87 16.87 25.17-25.17L71.3 213.4l16.87-17.13-25.3-25.69 25.3-25.3-16.87-16.86z" data-color="1"/>
        <path d="M64.7 49.87h-3.8A26 26 0 0 0 50.4 0H0v112.47h64.7a31.31 31.31 0 0 0 0-62.61z" fill="#1d1d1b" data-color="1"/>
        <path d="M114.9 72.17a89.93 89.93 0 0 0 16.84 1.72 72.73 72.73 0 0 0 72.73-72.73H94.35a49 49 0 0 0 40.44 48.31z" fill="#1d1d1b" data-color="1"/>
    </g>
</svg>