<svg preserveAspectRatio="xMidYMid meet" data-bbox="78.3 247.2 683.8 102" viewBox="78.3 247.2 683.8 102" xmlns="http://www.w3.org/2000/svg" data-type="color" role="img"><defs><style>#comp-jletd22d svg [data-color="1"] {fill: #FFFFFF;}</style></defs>
    <g>
        <path d="M104.5 256.7c14.1 0 22.1 8.3 22.1 19.6 0 7.5-4.5 13.5-10.6 15.6 7.1 1.7 12.8 8.2 12.8 17.2 0 11.8-8.8 20.3-22.4 20.3H78.3v-72.7h26.2zm-2.2 30c6.5 0 10.4-3.6 10.4-9.1s-3.6-9-10.5-9h-9.9v18.1h10zm1.4 30.8c6.9 0 11-3.6 11-9.4 0-5.7-3.7-9.7-10.8-9.7H92.3v19.2h11.4z" fill="#1d1d1b" data-color="1"/>
        <path d="M140 349.2l11.9-26.2-21.4-44.1h15.3l13.4 29.5 12.4-29.5h14.6l-31.7 70.3H140z" fill="#1d1d1b" data-color="1"/>
        <path d="M215.6 329.3v-72.7h45.5V270h-31.4v16.6h28.4v12.6h-28.4V316h31.4v13.3h-45.5z" fill="#1d1d1b" data-color="1"/>
        <path d="M283.6 304l-17.9-25.1h16.2c1.7 2.8 8.3 12.2 10 15l9.9-15h15.5l-17.6 24.7 18.2 25.7h-16l-10.6-15.5c-1.8 2.8-8.6 12.7-10.3 15.5h-15.4l18-25.3z" fill="#1d1d1b" data-color="1"/>
        <path d="M323.6 348.8v-69.9h13.2v6.1c2.3-3.9 7.9-7.3 15.5-7.3 14.8 0 23.3 11.3 23.3 26.2 0 15.3-9.5 26.5-23.8 26.5-7 0-12.1-2.8-14.6-6.2v24.4h-13.6zm26.1-58.8c-7 0-12.6 5.2-12.6 14.1 0 8.9 5.6 14.2 12.6 14.2s12.5-5.2 12.5-14.2c0-8.9-5.6-14.1-12.5-14.1z" fill="#1d1d1b" data-color="1"/>
        <path d="M429 314.9c-2.6 8.7-10.6 16-23 16-13.8 0-26-9.9-26-27 0-16.1 11.9-26.5 24.8-26.5 15.6 0 24.9 9.9 24.9 26.1 0 1.9-.2 4-.2 4.2h-36.1c.3 6.7 5.9 11.5 12.7 11.5 6.4 0 9.8-3.2 11.5-7.7l11.4 3.4zm-12.7-16.5c-.2-5-3.5-9.9-11.3-9.9-7.1 0-11 5.3-11.3 9.9h22.6z" fill="#1d1d1b" data-color="1"/>
        <path d="M468.6 292.4c-1.5-.3-2.9-.4-4.1-.4-7 0-13 3.4-13 14.2v23.1h-13.6v-50.4h13.2v7.5c3.1-6.7 10-7.9 14.3-7.9 1.1 0 2.2.1 3.2.2v13.7z" fill="#1d1d1b" data-color="1"/>
        <path d="M482.5 247.2c4.7 0 8.4 3.8 8.4 8.5 0 4.5-3.7 8.3-8.4 8.3-4.6 0-8.4-3.8-8.4-8.3 0-4.7 3.7-8.5 8.4-8.5zm-6.8 82.1v-50.4h13.6v50.4h-13.6z" fill="#1d1d1b" data-color="1"/>
        <path d="M546.5 314.9c-2.6 8.7-10.6 16-23 16-13.8 0-26-9.9-26-27 0-16.1 11.9-26.5 24.8-26.5 15.6 0 24.9 9.9 24.9 26.1 0 1.9-.2 4-.2 4.2h-36.1c.3 6.7 5.9 11.5 12.7 11.5 6.4 0 9.8-3.2 11.5-7.7l11.4 3.4zm-12.7-16.5c-.2-5-3.5-9.9-11.3-9.9-7.1 0-11 5.3-11.3 9.9h22.6z" fill="#1d1d1b" data-color="1"/>
        <path d="M569 329.3h-13.6v-50.4h13.2v6.3c3.1-5.2 9.1-7.6 14.6-7.6 12.5 0 18.2 8.9 18.2 20v31.8h-13.6V300c0-5.6-2.8-10-9.3-10-5.9 0-9.4 4.6-9.4 10.4v28.9z" fill="#1d1d1b" data-color="1"/>
        <path d="M622.5 304.1c0 9.1 5.9 14.2 12.9 14.2s10.5-4.6 11.6-8.5l12 4c-2.3 8.4-10.1 17-23.6 17-14.9 0-26.5-11.3-26.5-26.7 0-15.6 11.5-26.7 26.1-26.7 13.7 0 21.5 8.5 23.7 17l-12.2 4.1c-1.2-4.2-4.4-8.5-11.2-8.5-6.9 0-12.8 5-12.8 14.1z" fill="#1d1d1b" data-color="1"/>
        <path d="M711.2 314.9c-2.6 8.7-10.6 16-23 16-13.8 0-26-9.9-26-27 0-16.1 11.9-26.5 24.8-26.5 15.6 0 24.9 9.9 24.9 26.1 0 1.9-.2 4-.2 4.2h-36.1c.3 6.7 5.9 11.5 12.7 11.5 6.4 0 9.8-3.2 11.5-7.7l11.4 3.4zm-12.7-16.5c-.2-5-3.5-9.9-11.3-9.9-7.1 0-11 5.3-11.3 9.9h22.6z" fill="#1d1d1b" data-color="1"/>
        <path d="M733.6 279.7v13.6h-3.3v-13.6H725v-3.1h13.8v3.1h-5.2z" fill="#1d1d1b" data-color="1"/>
        <path d="M758.9 293.3v-11.7l-4.8 11.7h-2.7l-4.8-11.6v11.6h-3.1v-16.7h4.3l5 12 4.9-12h4.4v16.7h-3.2z" fill="#1d1d1b" data-color="1"/>
    </g>
</svg>